<?xml version="1.0" encoding="utf-8"?>
<!-- Generator: Adobe Illustrator 15.0.2, SVG Export Plug-In . SVG Version: 6.00 Build 0)  -->
<!DOCTYPE svg PUBLIC "-//W3C//DTD SVG 1.1//EN" "http://www.w3.org/Graphics/SVG/1.1/DTD/svg11.dtd">
<svg version="1.1" id="Layer_1" xmlns="http://www.w3.org/2000/svg" xmlns:xlink="http://www.w3.org/1999/xlink" x="0px" y="0px"
	 width="972px" height="164px" viewBox="0 0 237 40" enable-background="new 0 0 237 40" xml:space="preserve">
<g>
	<path d="M145.184,9.04H138.4c-7.039,0-10.041,2.432-10.041,8.137v5.2c0,5.706,3.002,8.138,10.041,8.138h6.783
		c7.039,0,10.041-2.432,10.041-8.138v-5.2C155.225,11.472,152.223,9.04,145.184,9.04z M149.725,22.377
		c0,1.318-0.59,3.528-4.541,3.528H138.4c-3.951,0-4.541-2.21-4.541-3.528v-5.2c0-1.317,0.59-3.525,4.541-3.525h6.783
		c3.951,0,4.541,2.208,4.541,3.525V22.377z"/>
	<g>
		<polygon fill="#CC3D8A" points="15.766,9.152 1.461,9.152 1.461,14.166 9.88,14.166 9.88,25.741 1.461,25.741 1.461,30.753 
			24.186,30.753 24.186,25.741 15.766,25.741 		"/>
		<path fill="#CC3D8A" d="M36.038,22.148h7.328c5.722,0,8.056-1.882,8.056-6.498c0-4.616-2.334-6.498-8.056-6.498H28.729v5.013
			h14.636c1.623,0,2.201,0.944,2.201,1.829c0,0.814-0.577,1.766-2.201,1.766h-7.328c-5.724,0-8.059,1.882-8.059,6.494v6.499h22.693
			v-5.012H33.835v-1.828C33.835,23.1,34.412,22.148,36.038,22.148z"/>
		<path fill="#CC3D8A" d="M63.244,9.491h-2.238c-1.048,0-4.24,0-4.24,3.611v1.716c0,3.612,3.192,3.612,4.24,3.612h2.238
			c1.049,0,4.24,0,4.24-3.612v-1.716C67.483,9.491,64.292,9.491,63.244,9.491z M58.624,13.102c0-1.163,0.369-1.754,2.382-1.754
			h2.238c2.014,0,2.382,0.591,2.382,1.754v1.716c0,1.164-0.368,1.754-2.382,1.754h-2.238c-2.013,0-2.382-0.59-2.382-1.754V13.102z"
			/>
	</g>
	<path d="M63.244,21.284h-2.238c-2.32,0-3.312,0.803-3.312,2.684v1.716c0,1.881,0.992,2.684,3.312,2.684h2.238
		c2.322,0,3.311-0.803,3.311-2.684v-1.716C66.555,22.087,65.565,21.284,63.244,21.284z"/>
	<path d="M63.244,32.064h-2.238c-2.32,0-3.312,0.803-3.312,2.684v1.715c0,1.881,0.992,2.684,3.312,2.684h2.238
		c2.322,0,3.311-0.803,3.311-2.684v-1.715C66.555,32.867,65.565,32.064,63.244,32.064z"/>
	<path d="M87.489,17.999h-7.328c-1.802,0-2.441-1.082-2.441-2.004c0-1,0.641-2.068,2.441-2.068H94.56V9.391H80.161
		c-5.554,0-7.818,1.815-7.818,6.26c0,4.445,2.264,6.26,7.818,6.26h7.328c1.8,0,2.44,1.079,2.44,2.003c0,1-0.641,2.066-2.44,2.066
		H73.091v4.535h14.398c5.553,0,7.817-1.814,7.817-6.261C95.306,19.811,93.042,17.999,87.489,17.999z"/>
	<path d="M114.552,9.391H99.188v21.124h5.408V26.96h9.956c6.923,0,9.876-2.392,9.876-8.004v-1.561
		C124.428,11.785,121.475,9.391,114.552,9.391z M119.02,18.956c0,1.294-0.58,3.47-4.468,3.47h-9.956v-8.499h9.956
		c3.888,0,4.468,2.172,4.468,3.468V18.956z"/>
	<path d="M63.244-0.146h-2.238c-2.32,0-3.312,0.803-3.312,2.685v1.714c0,1.882,0.992,2.684,3.312,2.684h2.238
		c2.322,0,3.311-0.802,3.311-2.684V2.538C66.555,0.656,65.565-0.146,63.244-0.146z"/>
	<g>
		<polygon points="173.004,19.236 181.395,9.391 175.23,9.391 166.832,19.268 176.414,30.515 182.584,30.515 		"/>
		<rect x="159.125" y="9.391" width="5.408" height="21.124"/>
	</g>
	<polygon points="209.064,13.927 209.064,9.391 186.318,9.391 186.318,30.515 209.064,30.515 209.064,25.979 191.727,25.979 
		191.727,21.91 209.064,21.91 209.064,17.999 191.727,17.999 191.727,13.927 	"/>
	<path d="M229.184,17.999h-7.33c-1.801,0-2.439-1.082-2.439-2.004c0-1,0.641-2.068,2.439-2.068h14.398V9.391h-14.398
		c-5.553,0-7.818,1.815-7.818,6.26c0,4.445,2.266,6.26,7.818,6.26h7.33c1.799,0,2.439,1.079,2.439,2.003
		c0,1-0.641,2.066-2.439,2.066h-14.4v4.535h14.4c5.551,0,7.816-1.814,7.816-6.261C237,19.811,234.734,17.999,229.184,17.999z"/>
</g>
</svg>
